<svg width="86" height="23" viewBox="0 0 86 23" fill="none" xmlns="http://www.w3.org/2000/svg">
<path d="M11.2799 22.3001C18.0299 22.3001 21.6599 17.8301 21.6599 11.3201C21.6599 4.81009 18.0299 0.340088 11.2799 0.340088C4.5299 0.340088 0.899902 4.81009 0.899902 11.3201C0.899902 17.8301 4.5299 22.3001 11.2799 22.3001ZM11.2799 19.5701C6.6299 19.5701 4.2299 16.6001 4.2299 11.3201C4.2299 6.04009 6.6299 3.07009 11.2799 3.07009C15.9299 3.07009 18.3299 6.04009 18.3299 11.3201C18.3299 16.6001 15.9299 19.5701 11.2799 19.5701Z" fill="black"/>
<path d="M35.6085 22.0001V19.7201H26.9985L35.3085 8.65009V6.52009H23.6085V8.80009H31.6185L23.3085 19.8701V22.0001H35.6085Z" fill="black"/>
<path d="M44.9073 22.3001C49.8273 22.3001 52.5573 19.1801 52.5573 14.2601C52.5573 9.34009 49.8273 6.22009 44.9073 6.22009C39.9873 6.22009 37.2573 9.34009 37.2573 14.2601C37.2573 19.1801 39.9873 22.3001 44.9073 22.3001ZM44.9073 19.8701C42.0573 19.8701 40.4373 18.0101 40.4373 14.2601C40.4373 10.5401 42.0573 8.65009 44.9073 8.65009C47.7573 8.65009 49.3773 10.5401 49.3773 14.2601C49.3773 18.0101 47.7573 19.8701 44.9073 19.8701Z" fill="black"/>
<path d="M68.1667 22.0001V11.7701C68.1667 8.02009 66.4567 6.22009 62.9167 6.22009C60.3367 6.22009 58.8367 7.42009 57.9967 9.22009V6.52009H54.9667V22.0001H58.1467V13.3601C58.1467 10.5401 59.6467 8.80009 61.9567 8.80009C64.1467 8.80009 64.9867 10.0001 64.9867 12.3401V22.0001H68.1667Z" fill="black"/>
<path d="M78.2179 22.3001C82.2379 22.3001 84.4879 20.3501 85.1779 17.2001H82.2679C81.7879 18.9701 80.4079 20.1101 78.2179 20.1101C75.5779 20.1101 73.8379 18.5201 73.7479 14.8601H85.4479C85.4779 14.5601 85.5079 14.2901 85.5079 13.9901C85.5079 9.55009 82.9279 6.22009 78.0379 6.22009C73.1479 6.22009 70.5679 9.49009 70.5679 14.2601C70.5679 19.1801 73.2979 22.3001 78.2179 22.3001ZM78.0379 8.41009C80.4379 8.41009 81.9979 9.85009 82.3279 12.7601H73.7479C74.0779 9.85009 75.6379 8.41009 78.0379 8.41009Z" fill="black"/>
</svg>
